<svg id="Capa_1" enable-background="new 0 0 512.002 512.002" height="512" viewBox="0 0 512.002 512.002" width="512" xmlns="http://www.w3.org/2000/svg"><g><g><path d="m286.484 327.697c-6.891-5.959-13.832-12.234-19.598-18-10.154-10.154-7.156-25.467-2.078-37.644l-8.58-41.928-15.782-15.782c-25.929-25.929-69.869-18.484-85.497 14.688-2.719 5.773-5.66 11.306-8.817 16.351-7.857 12.556-21.507 20.309-36.302 21.026-26.492 1.284-51.899 11.536-71.345 30.983-44.313 44.313-40.897 119.574 7.63 168.101s123.788 51.943 168.101 7.63c19.435-19.435 29.688-44.824 30.981-71.3.723-14.808 8.463-28.485 21.032-36.35 5.041-3.154 10.568-6.091 16.335-8.809.081-.038.162-.077.242-.115 11.273-5.381 13.127-20.679 3.678-28.851z" fill="#da7e4a"/><path d="m70.833 481.478c-48.527-48.527-51.943-123.788-7.63-168.101 19.447-19.446 44.854-29.699 71.345-30.983 14.795-.717 28.444-8.469 36.302-21.026 3.157-5.045 6.098-10.578 8.817-16.351 11.735-24.91 39.436-35.309 63.486-27.966l-2.708-2.708c-25.929-25.929-69.869-18.484-85.497 14.688-2.719 5.773-5.66 11.306-8.817 16.351-7.857 12.556-21.507 20.309-36.302 21.026-26.492 1.284-51.899 11.536-71.345 30.983-44.313 44.313-40.897 119.574 7.63 168.101 10.62 10.62 22.521 19.079 35.097 25.351-3.572-2.911-7.04-6.027-10.378-9.365z" fill="#cb6c35"/><path d="m150.771 400.581c.483-1-40.649-39.746-40.649-39.746h-5.732l-10.002 10.002c-5.622 5.622-5.622 14.738 0 20.36l26.021 26.021c5.622 5.622 14.738 5.622 20.36 0l10.002-10.002s-.482-5.635 0-6.635z" fill="#b5dcff"/><path d="m114.905 390.566 11.732-11.732h2.428c-9.682-9.276-18.943-18-18.943-18h-5.732l-10.002 10.002c-5.622 5.622-5.622 14.738 0 20.36l16.347 16.347c-1.809-5.801-.425-12.382 4.17-16.977z" fill="#8bcaff"/><path d="m490.748 64.006c-9.568-17.273-18.793-29.657-43.148-43.148-5.419-3.002-12.171-2.052-16.551 2.329l-48.605 48.605c-3.105 3.106-4.559 7.497-3.92 11.842l3.102 21.093v2.355l22.163 22.242 3.091.657 21.093 3.102c4.345.639 8.736-.815 11.842-3.92l48.605-48.605c4.38-4.382 5.33-11.133 2.328-16.552z" fill="#da7e4a"/><path d="m394.073 119.573-1.694-11.517c-.721-4.902.919-9.857 4.423-13.36l54.838-54.838c4.942-4.942 12.559-6.014 18.674-2.627.498.276.978.55 1.465.825-6.096-5.844-13.747-11.42-24.178-17.198-5.419-3.002-12.171-2.052-16.551 2.329l-48.605 48.605c-3.105 3.106-4.559 7.497-3.92 11.842l3.102 21.093v2.355z" fill="#cb6c35"/><path d="m381.626 104.726-170.337 170.337 1 2.351 21.583 21.917 2.671.986 170.337-170.337z" fill="#ffeb7e"/><path d="m222.575 287.86 171.093-171.093-12.042-12.041-170.337 170.337 1 2.351z" fill="#ffd500"/><circle cx="201.263" cy="310.343" fill="#6b7ed9" r="36.678"/><path d="m197.805 346.278c-14.323-14.323-14.323-37.547 0-51.87 7.875-7.874 18.438-11.41 28.734-10.626-14.368-13.684-37.103-13.482-51.211.626-14.323 14.323-14.323 37.547 0 51.87 6.449 6.449 14.703 9.984 23.136 10.626-.22-.209-.443-.411-.659-.626z" fill="#4d66d2"/><path d="m179.082 395.162-62.638-62.638c-2.617-2.617-6.859-2.616-9.476 0l-10.706 10.706c-2.617 2.617-2.617 6.859 0 9.476l62.638 62.638c2.617 2.617 6.859 2.617 9.476 0l10.706-10.706c2.616-2.617 2.616-6.859 0-9.476z" fill="#dbedff"/><path d="m122.619 370.982 11.708-11.708c1.883-1.883 4.533-2.518 6.942-1.924l-24.826-24.826c-2.617-2.617-6.859-2.616-9.476 0l-10.707 10.706c-2.616 2.617-2.617 6.859 0 9.476l24.26 24.26c-.233-2.133.464-4.349 2.099-5.984z" fill="#b5dcff"/></g><g><path d="m89.228 396.763 26.021 26.022c8.536 8.536 22.428 8.537 30.967 0l4.699-4.699 2.824 2.824c5.551 5.551 14.532 5.551 20.084.001l10.706-10.706c5.547-5.549 5.55-14.532 0-20.082l-18.944-18.945c-2.929-2.929-7.678-2.93-10.606-.001-2.93 2.929-2.93 7.678-.001 10.606l18.379 18.38-9.575 9.575c-5.735-5.735-54.868-54.867-61.507-61.506l9.576-9.576 18.378 18.379c2.93 2.929 7.679 2.93 10.606.001 2.93-2.929 2.93-7.678.001-10.606l-18.945-18.947c-5.539-5.536-14.546-5.534-20.081.002l-10.71 10.706c-5.533 5.536-5.533 14.545.001 20.082l2.825 2.825-4.697 4.698c-8.556 8.554-8.561 22.408-.001 30.967zm10.608-20.36 4.697-4.698 35.775 35.775-4.699 4.698c-2.688 2.69-7.066 2.688-9.753.001l-26.021-26.022c-2.695-2.695-2.697-7.059.001-9.754z"/><path d="m509.805 99.477c-2.93-2.928-7.678-2.928-10.607 0l-.188.188-9.342-9.342 4.199-4.199c6.707-6.708 8.183-17.188 3.587-25.488 0-.001-.001-.001-.001-.002-10.653-19.23-21.15-32.269-46.074-46.073-8.298-4.595-18.78-3.122-25.489 3.585l-4.199 4.199-9.341-9.341.188-.188c2.929-2.93 2.929-7.678 0-10.607-2.93-2.928-7.678-2.928-10.607 0l-10.983 10.983c-2.929 2.93-2.929 7.678 0 10.607 2.931 2.929 7.678 2.928 10.607 0l.188-.188 9.341 9.341-18.681 18.682-9.343-9.342.189-.189c2.929-2.929 2.929-7.678-.001-10.606-2.928-2.928-7.677-2.929-10.606.001l-10.984 10.982c-2.929 2.929-2.929 7.678.001 10.606 2.928 2.928 7.676 2.929 10.606-.001l.188-.188 9.343 9.342-4.51 4.511c-4.759 4.76-7.017 11.577-6.037 18.237l2.554 17.362-25.754 25.754c-.002.003-.006.005-.008.008s-.005.006-.008.008l-28.412 28.412c-.002.002-.005.004-.007.006s-.004.005-.006.007l-63.235 63.234-10.478-10.478c-29.171-29.173-79.488-21.617-97.586 16.795-2.733 5.804-5.557 11.041-8.39 15.568-6.484 10.361-17.813 16.908-30.308 17.514-29.22 1.416-56.312 13.197-76.285 33.171-46.748 46.75-44.41 126.667 7.629 178.708 44.19 44.188 110.301 53.382 158.317 23.753 3.525-2.176 4.619-6.796 2.444-10.321-2.177-3.525-6.798-4.618-10.321-2.444-42.367 26.144-101.177 17.063-139.833-21.595-46.242-46.24-48.429-116.694-7.629-157.494 17.332-17.333 40.915-27.56 66.404-28.795 17.396-.843 33.209-10.017 42.296-24.538 3.147-5.029 6.258-10.794 9.245-17.134 13.395-28.436 51.054-34.938 73.408-12.58l10.478 10.477c-13.76 13.76-10.668 10.668-36.719 36.719-14.538-2.543-29.005 2.393-38.877 12.261-17.27 17.27-17.256 45.22.001 62.478 17.282 17.282 45.315 17.16 62.477 0 .026-.026.05-.054.076-.081 10.076-10.124 14.692-24.422 12.195-38.806l7.923-7.923c.612 9.49 4.625 15.966 8.887 20.228 5.283 5.285 12.012 11.466 19.997 18.371 5.379 4.653 4.47 13.365-2.214 16.508-6.328 2.982-12.086 6.09-17.115 9.235-14.518 9.084-23.693 24.912-24.545 42.343-1.076 22.043-8.688 42.382-22.014 58.816-2.608 3.218-2.114 7.94 1.103 10.55 3.219 2.608 7.941 2.115 10.55-1.103 15.348-18.93 24.111-42.282 25.344-67.532.612-12.528 7.161-23.877 17.519-30.357 7.769-4.862 16.131-8.657 15.83-8.514 16.118-7.692 18.914-29.567 5.354-41.292-7.712-6.67-14.173-12.602-19.201-17.632-7.083-7.082-4.617-18.935-1.001-28.114l55.71-55.71c.002-.002.003-.003.005-.005s.003-.003.005-.005l82.612-82.611 17.363 2.553c6.486.957 13.361-1.162 18.236-6.036l4.51-4.51 9.341 9.341-.188.188c-2.929 2.93-2.929 7.678 0 10.607 2.931 2.929 7.678 2.928 10.607 0l10.983-10.983c2.929-2.93 2.929-7.678 0-10.607-2.93-2.928-7.678-2.928-10.607 0l-.188.188-9.341-9.341 18.681-18.681 9.342 9.342-.188.188c-2.929 2.93-2.929 7.678 0 10.607 2.931 2.929 7.678 2.928 10.607 0l10.983-10.983c2.927-2.928 2.927-7.676-.002-10.605zm-287.767 231.76c-11.375 11.377-29.888 11.377-41.263 0-11.372-11.371-11.382-29.882 0-41.263 11.297-11.297 29.825-11.444 41.263 0h.001c11.406 11.403 11.334 29.931-.001 41.263zm17.066-43.682c-3.512-5.72-8.571-10.936-14.654-14.638l15.185-15.185 14.646 14.646zm25.785-25.784-14.647-14.647c1.971-1.971 15.669-15.67 17.82-17.82l14.647 14.647zm28.426-28.427-14.647-14.647 17.82-17.82 14.647 14.647zm28.428-28.427-14.647-14.647 17.82-17.82 14.647 14.647zm28.427-28.427-14.647-14.647 17.819-17.819 14.647 14.647zm28.427-28.427-14.647-14.647 17.82-17.82 14.647 14.648zm104.662-72.546-48.604 48.604c-1.421 1.422-3.447 2.098-5.447 1.804l-18.635-2.74-21.745-21.745-2.741-18.635c-.292-1.989.383-4.025 1.805-5.447l48.604-48.605c2.003-2.004 5.132-2.445 7.613-1.071 22.009 12.191 30.506 22.683 40.221 40.22 1.374 2.48.933 5.612-1.071 7.615z"/><path d="m444.025 48.864c-2.93-2.928-7.678-2.928-10.607 0l-32.688 32.688c-2.929 2.93-2.929 7.678 0 10.607 2.931 2.929 7.678 2.928 10.607 0l32.688-32.688c2.929-2.929 2.929-7.677 0-10.607z"/><path d="m452.542 67.987-32.688 32.688c-2.929 2.93-2.929 7.678 0 10.607 2.931 2.929 7.678 2.928 10.607 0l32.688-32.688c2.929-2.93 2.929-7.678 0-10.607-2.93-2.927-7.678-2.927-10.607 0z"/></g></g></svg>