<svg id="Capa_1" enable-background="new 0 0 511.997 511.997" height="512" viewBox="0 0 511.997 511.997" width="512" xmlns="http://www.w3.org/2000/svg"><g><g><path d="m293.83 67.087 20.041 18.074c39.996 36.004 67.148 103.386 63.748 148.466-2.17 21.281-7.747 41.856-16.388 61.023l-63.982 117.957.003.006c40.257-23.636 72.032-58.308 91.958-100.401 11.917-25.174 21.052-53.039 23.428-80.306 7.375-47.806 24.999-110.288 65.38-145.859l20.234-18.958h-204.422z" fill="#ffd500"/><path d="m313.871 85.161c39.996 36.004 67.148 103.386 63.748 148.466-2.17 21.281-7.747 41.856-16.388 61.023l-29.393 54.189h13.613s50.317-51.479 50.59-134c.201-60.84-18.761-120.565-28.739-147.751h-73.472z" fill="#fbc700"/><path d="m343.833 234.175c-36.314-63.085-117.378-84.681-180.304-47.851-62.251 36.435-83.467 117.129-47.211 179.485 10.796 18.567 25.483 33.505 42.436 44.389.063.041.029.138-.046.13-8.139-.873-16.228-2.257-24.221-4.132l-3.662 1.267-6 25.125 1.999 5.681c56.315 13.218 116.786 5.243 168.673-24.625.589-.339 1.169-.688 1.754-1.032l-.003-.006c61.45-36.633 82.399-116.215 46.585-178.431zm-64.796 150.874c-47.039 27.077-107.336 10.838-134.414-36.201s-10.838-107.337 36.201-134.414 107.336-10.838 134.414 36.201 10.838 107.337-36.201 134.414z" fill="#ffe559"/><path d="m280.229 215.159c14.085 8.344 26.277 20.305 35.01 35.476 27.077 47.039 10.837 107.337-36.202 134.414-19.648 11.31-41.609 15.057-62.497 12.164-27.124 8.138-51.086 7.61-70.166 3.97 3.965 3.258 8.1 6.266 12.38 9.014.063.041.029.138-.046.13-8.139-.873-16.228-2.257-24.221-4.132l-3.662 1.267-3.611 15.121c112.645 26.508 208.375-36.214 214.721-108.746 7.015-80.166-61.706-98.678-61.706-98.678z" fill="#ffd500"/><path d="m197.639 392.679c-9.405 1.571-18.932 2.438-28.496 2.597-1.632.027-3.228-.539-4.481-1.584-30.418-25.366-51.277-56.513-49.211-93.854 4.726-85.396 69.979-118.782 111.891-131.466-21.755.392-43.709 6.186-63.812 17.952-62.251 36.435-83.467 117.129-47.211 179.485 10.796 18.567 25.483 33.505 42.436 44.389.022.014.02.037.02.058l.009.004s45.436 2.457 77.635-12.316c-13.15.847-26.378-.966-38.78-5.265z" fill="#fbc700"/><path d="m101.729 395.452h-4.029l-12.75 24.386 1.576 4.996c13.06 5.741 26.557 10.21 40.298 13.435l7.706-32.088c-11.166-2.618-22.148-6.178-32.801-10.729z" fill="#ffd500"/><path d="m89.784 410.593c13.71 5.575 27.294 9.783 40.63 12.73l4.117-17.143c-11.167-2.618-22.149-6.178-32.802-10.729h-4.029z" fill="#fbc700"/><path d="m57.911 361.285-42.511-21.995c-3.743-1.937-8.187.874-8.04 5.086l.789 22.575c.144 4.127 2.503 7.855 6.17 9.752l28.093 14.535 3.038-.901 13.417-26.167z" fill="#8896e0"/><path d="m27.654 364.87c-3.667-1.897-6.026-5.626-6.17-9.752l-.452-12.914-5.632-2.914c-3.743-1.937-8.187.874-8.04 5.086l.789 22.575c.144 4.127 2.503 7.855 6.17 9.752l28.093 14.535 3.038-.901 6.589-12.85z" fill="#6b7ed9"/><path d="m36.894 401.904c-2.046 3.955-.499 8.82 3.456 10.866l34.188 17.689c3.955 2.046 8.82.499 10.866-3.456l17.311-33.459c2.046-3.955.499-8.82-3.456-10.866l-41.349-21.394z" fill="#6b7ed9"/><path d="m55.76 412.885 21.514-41.582-19.364-10.018-21.016 40.62c-2.046 3.955-.499 8.82 3.456 10.866l15.369 7.952c-1.194-2.386-1.279-5.287.041-7.838z" fill="#4d66d2"/></g><path d="m.008 344.902.79 22.573c.237 6.825 4.152 13.014 10.219 16.153l21.431 11.089-2.072 4.005c-3.953 7.64-.97 17.021 6.671 20.973l34.188 17.689c6.312 3.267 13.699 1.761 18.281-2.936 115.439 47.092 251.458-2.246 306.614-118.764 13.506-28.53 21.837-57.091 24.099-82.613 3.83-24.731 9.51-47.563 16.884-67.866 1.414-3.893-.596-8.195-4.489-9.609-3.898-1.416-8.196.596-9.61 4.489-7.73 21.285-13.667 45.153-17.646 70.941-.025.164-.045.328-.06.493-2.99 34.325-18.997 79.121-43.802 113.345 5.163-15.139 7.855-31.782 7.447-48.537 8.619-19.583 14.091-40.323 16.268-61.674.007-.065.013-.131.018-.196 3.701-49.054-25.999-118.409-66.202-154.599l-5.55-5.005h165.935c-10.015 9.382-25.639 21.955-41.828 52.218-1.954 3.652-.577 8.197 3.075 10.151 3.654 1.955 8.197.576 10.151-3.076 14.49-27.089 25.498-35.83 50.54-59.293h3.136c4.143 0 7.5-3.358 7.5-7.5s-3.357-7.5-7.5-7.5c-10.587 0-206.218 0-216.624 0-4.143 0-7.5 3.358-7.5 7.5s3.357 7.5 7.5 7.5h3.219l17.905 16.148c36.531 32.885 64.583 97.99 61.293 142.228-1.087 10.606-3.059 21.046-5.878 31.246-23.544-88.785-124.962-130.163-203.646-84.87-78.589 45.237-93.765 153.399-29.203 218.334-7.204-1.883-13.777-4.017-20.348-6.54.497-5.949-2.498-12.084-8.365-15.119-8.733-4.518-74.904-38.755-83.859-43.389-8.833-4.57-19.329 2.055-18.981 12.009-.001.001-.001.001-.001.002zm168.241-152.3c59.226-34.09 135.138-13.643 169.229 45.578 33.768 58.662 13.717 135.013-45.577 169.228-47.337 27.249-103.014 35.903-155.843 25.401l4.198-17.481c49.922 9.813 100.715.637 142.667-23.514 50.623-29.141 68.101-94.033 38.961-144.656-16.256-28.24-44.137-47.167-76.494-51.929-4.092-.604-7.908 2.23-8.512 6.328s2.23 7.909 6.328 8.512c27.787 4.089 51.726 20.335 65.678 44.572 34.751 60.371-8.923 136.281-78.655 136.279-31.49-.001-62.154-16.354-78.961-45.55-30.551-53.074-.726-121.262 59.608-134.249 4.049-.872 6.626-4.86 5.754-8.91s-4.864-6.625-8.91-5.754c-70.298 15.128-105.05 94.556-69.452 156.396 14.884 25.856 39.095 43.054 65.965 49.821-14.042 1.782-28.303 2.025-42.503.666-76.622-50.447-73.291-164.795 6.519-210.738zm-62.863 212.643c5.785 2.244 13.494 4.818 20.262 6.668l-4.201 17.493c-8.295-2.237-16.45-4.944-24.377-8.089 1.707-3.299.021-.042 8.316-16.072zm-44.117-33.589 34.688 17.947c.27.14.389.465.241.759-16.711 32.299-7.628 14.742-17.312 33.459-.143.276-.479.385-.758.241l-34.188-17.69c-.276-.141-.385-.477-.241-.758 2.086-4.033 15.333-29.634 17.57-33.958zm-13.322-6.893c-4.878 9.427-2.007 3.878-8.605 16.631l-21.432-11.088c-1.259-.651-2.071-1.936-2.121-3.354l-.671-19.175z"/></g></svg>