<svg id="Capa_1" enable-background="new 0 0 511.996 511.996" height="512" viewBox="0 0 511.996 511.996" width="512" xmlns="http://www.w3.org/2000/svg"><g><g><path d="m162.705 90.342h-27.5l-2.65 2.916v306.834l1.9 2.5h28.334l2.49-2.5v-306.834z" fill="#fbc700"/><path d="m148.917 93.258 2.65-2.916h-16.362l-2.65 2.916v306.834l1.9 2.5h16.362l-1.9-2.5z" fill="#eab900"/><path d="m169.407 400.092h-40.978c-5.438 0-9.846 4.408-9.846 9.846v27.439l4.873 3.382h48.75l7.047-3.382v-27.439c-.001-5.438-4.409-9.846-9.846-9.846z" fill="#ffd500"/><path d="m362.99 114.836c-36.386 8.067-49.446-10.306-56.103-24.828-17.48-38.141-48.832-59.348-90.663-61.328-14.084-.665-27.043 1.025-36.973 3.058l-2.797 2.52v24l2.797 4.185c21.293-5.552 75.769-13.598 100.364 40.065 17.003 37.099 49.675 50.524 89.866 41.617 10.169-2.255 17.915 8.627 13.429 17.572l-203.658 275.679 3.37 3.382h63.333l6.63-3.382 156.009-260.163c.185-.292.359-.591.523-.896 17.176-31.844-10.947-69.279-46.127-61.481z" fill="#ffe559"/><g fill="#ffd500"><path d="m279.616 102.509c14.941 32.598 41.982 46.912 75.589 43.863-25.71-2.511-46.292-16.954-58.625-43.863-18.349-40.035-53.327-45.722-78.752-43.724 22.363 1.884 47.276 12.061 61.788 43.724z"/><path d="m399.875 161.698c4.487-8.946-3.26-19.827-13.429-17.572-2.732.605-5.427 1.098-8.087 1.497 5.054 3.187 7.566 10.065 4.552 16.075l-203.659 275.678 3.37 3.382h35.964l-3.37-3.382z"/><path d="m169.407 7.237h-40.978c-5.438 0-9.846 4.408-9.846 9.846v66.33c0 5.438 4.408 9.846 9.846 9.846h40.978c5.438 0 9.846-4.408 9.846-9.846v-66.33c-.001-5.438-4.409-9.846-9.846-9.846z"/></g><path d="m146.121 409.937c0-5.438 4.408-9.846 9.846-9.846h-27.538c-5.438 0-9.846 4.408-9.846 9.846v27.439l4.873 3.382h27.538l-4.873-3.382z" fill="#fbc700"/><path d="m146.12 83.413v-66.33c0-5.437 4.408-9.846 9.846-9.846h-27.538c-5.438 0-9.846 4.408-9.846 9.846v66.33c0 5.438 4.408 9.846 9.846 9.846h27.538c-5.437-.001-9.846-4.409-9.846-9.846z" fill="#fbc700"/><path d="m281.061 437.376h-175.284c-4.616 0-8.358 3.742-8.358 8.358v50.141c0 4.616 3.742 8.358 8.358 8.358h175.285c4.616 0 8.358-3.742 8.358-8.358v-50.141c-.001-4.616-3.743-8.358-8.359-8.358z" fill="#8896e0"/><path d="m138.238 495.875v-50.141c0-4.616 3.742-8.358 8.358-8.358h-40.819c-4.616 0-8.358 3.742-8.358 8.358v50.141c0 4.616 3.742 8.358 8.358 8.358h40.819c-4.616 0-8.358-3.742-8.358-8.358z" fill="#6b7ed9"/></g><path d="m411.729 126.339c-11.856-15.687-31.103-22.799-50.218-18.562-30.553 6.775-41.241-6.626-47.661-20.63-24.132-52.652-71.933-72.311-126.954-64.077v-5.724c0-9.565-7.781-17.346-17.346-17.346h-40.979c-9.564 0-17.346 7.781-17.346 17.346v66.331c0 8.41 6.018 15.436 13.973 17.011v292.502c-7.955 1.575-13.973 8.601-13.973 17.011v19.939h-5.306c-8.744 0-15.857 7.114-15.857 15.858v50.141c0 8.744 7.113 15.858 15.857 15.858h70.143c4.143 0 7.5-3.358 7.5-7.5s-3.357-7.5-7.5-7.5h-70.142c-.473 0-.857-.385-.857-.858v-50.141c0-.473.385-.858.857-.858h175.284c.474 0 .858.385.858.858v50.141c0 .473-.385.858-.858.858h-70.142c-4.143 0-7.5 3.358-7.5 7.5s3.357 7.5 7.5 7.5h70.142c8.744 0 15.858-7.114 15.858-15.858v-50.141c0-8.744-7.114-15.858-15.858-15.858h-15.232l76.909-128.254c2.13-3.552.977-8.159-2.575-10.289-3.551-2.129-8.16-.978-10.29 2.575l-81.535 135.968h-54.22c203.747-275.798 195.049-263.922 195.498-264.816 3.462-6.902 2.626-15.021-2.181-21.187-4.678-6.002-12.185-8.711-19.575-7.07-36.429 8.073-65.677-3.057-81.425-37.419-18.65-40.69-56.41-54.378-99.683-46.297v-15.109c49.709-8.188 92.053 8.758 113.317 55.155 12.134 26.469 33.243 35.964 64.544 29.025 13.315-2.952 26.73 2.014 35.005 12.961 8.35 11.049 9.461 25.471 2.896 37.643-.071.132-54.565 91-54.643 91.129-2.13 3.552-.977 8.159 2.575 10.289 3.551 2.13 8.159.979 10.29-2.575.341-.568 54.667-91.144 54.982-91.727 9.385-17.398 7.801-38.014-4.132-53.803zm-58.848 28.008c5.926-.368 12.049-1.235 18.369-2.636 2.385-.53 3.842.805 4.498 1.647.878 1.126 1.506 2.934.804 4.783l-23.671 32.042zm-34.5-4.493c6.158 2.205 12.667 3.632 19.5 4.282v56.351l-19.5 26.396zm-34.5-25.538c5.606 7.365 12.113 13.451 19.5 18.19v114.682l-19.5 26.396zm-34.5-47.064c7.267 4.837 13.968 11.601 19.5 20.898v205.738l-19.5 26.396zm-34.5-10.872c6.374.377 12.994 1.461 19.5 3.612v280.596l-19.5 26.396zm-42.985 363.76h-45.67v-19.939c0-1.293 1.053-2.346 2.346-2.346h40.979c1.293 0 2.346 1.052 2.346 2.346v19.939zm-31.697-37.285v-291.833h17.725v291.833zm31.697-309.179c0 1.293-1.053 2.346-2.346 2.346-7.628 0-31.681 0-40.979 0-1.293 0-2.346-1.052-2.346-2.346v-66.33c0-1.293 1.053-2.346 2.346-2.346h40.979c1.293 0 2.346 1.052 2.346 2.346zm27.985-17v330.612l-12.985 17.577v-4.665c0-8.41-6.018-15.436-13.973-17.011v-292.502c7.955-1.575 13.973-8.601 13.973-17.011v-15.028c3.813-.799 8.21-1.526 12.985-1.972z"/></g></svg>