<svg id="Capa_1" enable-background="new 0 0 511.959 511.959" height="512" viewBox="0 0 511.959 511.959" width="512" xmlns="http://www.w3.org/2000/svg"><g><g><path d="m274.211 130.338h-7.329l-133.752 154.296v4.535l51.285 53 7.149.899 154.296-133.752v-7.329z" fill="#ff7f87"/><path d="m274.211 130.338h-7.329l-133.752 154.296v4.535l20.543 21.23 142.432-158.166z" fill="#ff636e"/><path d="m97.902 350.223h-5.531l-20.465 23.609c-2.92 3.368-2.74 8.42.412 11.572l18.476 18.476c3.152 3.152 8.204 3.332 11.572.412l23.609-20.465v-5.531z" fill="#ffd500"/><path d="m85.818 385.265 21.883-25.244-9.798-9.798h-5.531l-20.465 23.609c-2.92 3.368-2.74 8.42.412 11.572l11.913 11.913c-1.876-3.874-1.382-8.629 1.586-12.052z" fill="#fbc700"/><path d="m133.13 284.634-40.543 46.77c-5.004 5.773-4.696 14.432.706 19.834l31.667 31.667c5.402 5.402 14.061 5.711 19.834.706l46.77-40.543z" fill="#ff636e"/><path d="m133.13 284.634-40.543 46.77c-5.004 5.773-4.696 14.432.706 19.834l12.419 12.419 50.435-56.006z" fill="#ff4654"/><path d="m281.064 199.66-4.527-4.526c-5.432-5.432-14.32-5.432-19.752 0l-11.11 11.111c-5.432 5.432-5.432 14.32 0 19.752l4.526 4.527c5.432 5.432 14.32 5.432 19.752 0l11.11-11.111c5.433-5.432 5.433-14.321.001-19.753z" fill="#ff636e"/><path d="m255.696 219.803 13.701-13.701c3.535-3.535 8.256-5.185 12.912-4.989-.381-.504-.786-.994-1.245-1.453l-4.527-4.526c-5.432-5.432-14.32-5.432-19.752 0l-11.11 11.11c-5.432 5.432-5.432 14.32 0 19.752l4.526 4.527c.166.166.345.311.518.467.232-4.078 1.879-8.089 4.977-11.187z" fill="#ff4654"/><path d="m438.305 37.893c-36.548-36.548-93.384-40.434-134.252-11.667l-25.535 25.534c-12.911 18.342-19.229 39.899-18.981 61.395.075 6.46 2.776 12.614 7.344 17.182l78.978 78.978c4.568 4.568 10.722 7.27 17.182 7.344 21.497.249 43.054-6.07 61.396-18.981l25.535-25.535c28.767-40.866 24.881-97.702-11.667-134.25z" fill="#b5dcff"/><path d="m287.589 149.241c-.011-.964-.01-1.927.003-2.891.392-28.204 12.287-55.031 32.232-74.976l3.829-3.829c20.554-20.554 48.398-32.495 77.464-32.271 14.61.113 29.2 3.057 42.886 8.817-1.807-2.12-3.695-4.194-5.699-6.198-36.547-36.548-93.383-40.434-134.251-11.667l-25.535 25.534c-12.911 18.342-19.229 39.899-18.981 61.395.075 6.46 2.776 12.614 7.344 17.182l20.808 20.808c-.053-.631-.093-1.266-.1-1.904z" fill="#8bcaff"/><path d="m451.957 174.13-119.868-119.868c-2.785-.687-5.844.033-8.021 2.209l-15.304 15.304c-2.176 2.176-2.896 5.236-2.209 8.021l119.868 119.868c3.097 3.097 8.118 3.097 11.215 0l14.32-14.32c3.096-3.096 3.096-8.117-.001-11.214z" fill="#dbedff"/><path d="m309.285 71.966 14.974-14.974c2.329-2.328 5.695-2.973 8.608-1.953l-30.798-30.798c-3.097-3.097-8.118-3.097-11.215 0l-14.319 14.32c-3.097 3.097-3.097 8.118 0 11.215l30.798 30.798c-1.022-2.914-.377-6.28 1.952-8.608z" fill="#b5dcff"/></g><g><path d="m245.042 236.09c8.369 8.369 21.988 8.367 30.359 0l11.11-11.11c8.369-8.37 8.369-21.989 0-30.359-.001 0-.001 0-.001 0l-4.526-4.526c-8.369-8.369-21.99-8.368-30.358 0l-11.109 11.11c-8.369 8.369-8.369 21.99-.001 30.358zm6.081-24.278 11.11-11.111c2.506-2.506 6.639-2.505 9.145.001l4.526 4.526c2.521 2.521 2.521 6.624 0 9.145l-11.109 11.11c-2.521 2.521-6.625 2.521-9.146.001l-4.525-4.527c-2.507-2.507-2.509-6.641-.001-9.145z"/><path d="m222.478 243.52-6.584 6.584c-2.929 2.93-2.929 7.678 0 10.607 2.931 2.929 7.678 2.928 10.607 0l6.584-6.584c2.929-2.93 2.929-7.678 0-10.607-2.93-2.928-7.678-2.928-10.607 0z"/><path d="m46.958 475.323 25 24.999c15.515 15.515 40.765 15.516 56.283 0l203.844-203.845c9.668-9.669 25.401-9.67 35.069 0l24.999 24.998c9.668 9.669 9.668 25.401 0 35.069l-93.616 93.616c-2.929 2.93-2.929 7.678 0 10.607 2.93 2.928 7.678 2.928 10.607 0l93.616-93.617c15.516-15.517 15.516-40.765 0-56.282l-24.999-24.999c-15.518-15.517-40.767-15.515-56.284 0l-203.842 203.846c-9.669 9.668-25.403 9.67-35.07 0l-24.999-24.999c-9.669-9.668-9.669-25.4-.001-35.069l24.135-24.136 3.934 3.934c5.907 5.909 15.478 6.248 21.787.776l19.576-16.969c7.624 3.116 16.5 1.796 22.852-3.712l46.771-40.543 65.986-57.2c3.13-2.713 3.468-7.449.755-10.579-2.714-3.132-7.451-3.47-10.579-.755l-60.709 52.625-48.558-48.558 123.902-142.93 67.588 67.588-55.71 48.293c-3.129 2.713-3.467 7.45-.754 10.58s7.45 3.468 10.58.754l57.091-49.491c5.851 3.768 11.673 5.107 18.223 5.107 21.263 0 41.683-5.886 59.5-17.075 6.056 3.827 14.017 3.007 19.15-2.124l14.318-14.319c5.217-5.216 5.914-13.187 2.125-19.154 24.077-38.374 22.73-87.858-3.954-124.965-2.418-3.363-7.105-4.127-10.468-1.71-3.362 2.418-4.129 7.104-1.71 10.468 22.356 31.089 24.195 72.213 5.42 104.951l-132.711-132.713c32.419-18.57 73.239-16.944 104.201 4.875 3.387 2.386 8.064 1.577 10.451-1.81 2.386-3.386 1.575-8.064-1.811-10.451-36.967-26.053-86.101-27.152-124.101-3.326-5.961-3.77-13.959-3.068-19.153 2.123l-14.319 14.32c-5.191 5.192-5.892 13.188-2.123 19.15-11.424 18.189-17.319 39.092-17.068 60.836.07 6.037 1.853 11.845 5.099 16.887l-170.218 196.36c-5.586 6.445-6.768 15.349-3.706 22.846l-16.975 19.582c-5.472 6.312-5.131 15.882.776 21.789l3.935 3.934-24.136 24.134c-15.516 15.518-15.516 40.767.001 56.284zm235.022-431.196 14.318-14.319c.084-.084.195-.126.306-.126s.221.042.304.125l1.98 1.98c.001.001.003.003.004.005 6.406 6.406 141.526 141.526 147.904 147.904 0 0 .001 0 .001.001.034.034.126.125.126.303s-.092.27-.127.305l-14.319 14.319c-.166.168-.441.168-.607 0-6.382-6.382-141.499-141.499-147.904-147.904-.003-.003-.006-.005-.009-.008l-1.976-1.976c-.168-.168-.168-.441-.001-.609zm-2.02 19.802 132.717 132.717c-14.957 8.586-31.837 12.958-49.403 12.779-4.448-.052-8.698-1.881-11.966-5.149l-78.979-78.978c-3.269-3.269-5.098-7.519-5.148-11.966-.203-17.539 4.192-34.446 12.779-49.403zm-181.563 272.65 35.268-40.685 47.045 47.045-40.685 35.268c-2.789 2.418-7.018 2.263-9.617-.343l-31.668-31.667c-2.607-2.606-2.758-6.831-.343-9.618zm-20.68 42.428 15.146-17.472 22.207 22.207-17.473 15.146c-.393.341-.986.319-1.355-.049l-18.476-18.476c-.369-.367-.39-.962-.049-1.356z"/></g></g></svg>