<svg id="Capa_1" enable-background="new 0 0 511.996 511.996" height="512" viewBox="0 0 511.996 511.996" width="512" xmlns="http://www.w3.org/2000/svg"><g><g><path d="m296.369 419.852 1.581-1.523-3.333-27.5-1.789-.768-173.488 20.624c-8.226.978-14.103 8.44-13.125 16.666s8.439 14.102 16.666 13.125z" fill="#ffd500"/><path d="m296.293 404.658-1.676-13.829-1.789-.768-173.488 20.624c-8.194.974-14.052 8.382-13.131 16.569z" fill="#fbc700"/><path d="m21.42 117.628c11.979 1.115 454.341 42.311 465.996 43.396.488.045.974.068 1.455.068 7.911 0 14.666-6.029 15.414-14.063.793-8.523-5.472-16.075-13.995-16.869-14.585-1.358-437.087-40.704-465.996-43.397-8.512-.786-16.075 5.473-16.869 13.995-.794 8.524 5.471 16.076 13.995 16.87z" fill="#da7e4a"/><path d="m504.285 284.572c-.794-8.522-8.363-14.783-16.869-13.995-3.916.365-455.514 42.421-465.996 43.397-8.523.794-14.789 8.346-13.996 16.869.749 8.034 7.502 14.063 15.414 14.063.481 0 .967-.022 1.455-.068 28.913-2.693 451.311-42.029 465.996-43.396 8.524-.795 14.789-8.347 13.996-16.87z" fill="#da7e4a"/><path d="m488.871 145.093c-.481 0-.967-.022-1.455-.068-11.656-1.085-454.018-42.281-465.996-43.397-5.091-.474-9.361-3.369-11.818-7.432-1.173 1.938-1.953 4.155-2.177 6.562-.793 8.523 5.472 16.075 13.996 16.87 11.979 1.115 454.341 42.311 465.996 43.396.488.045.974.068 1.455.068 7.911 0 14.666-6.029 15.414-14.063.319-3.429-.519-6.691-2.172-9.428-2.742 4.53-7.705 7.492-13.243 7.492z" fill="#cb6c35"/><path d="m502.107 278.01c-2.457 4.063-6.727 6.957-11.817 7.432-14.686 1.368-437.083 40.704-465.996 43.396-.488.045-.974.068-1.455.068-5.539 0-10.502-2.961-13.242-7.491-1.653 2.738-2.491 6-2.172 9.428.749 8.034 7.502 14.063 15.414 14.063.481 0 .967-.022 1.455-.068 28.913-2.693 451.311-42.029 465.996-43.396 8.523-.794 14.788-8.346 13.995-16.87-.224-2.408-1.004-4.624-2.178-6.562z" fill="#cb6c35"/><g fill="#ffd500"><path d="m112.21 70.888h-35.636c-5.296 0-9.589 4.293-9.589 9.589v270.648c0 5.296 4.293 9.589 9.589 9.589h35.636c5.296 0 9.589-4.293 9.589-9.589v-270.648c0-5.296-4.293-9.589-9.589-9.589z"/><path d="m220.432 80.888h-35.636c-5.296 0-9.589 4.293-9.589 9.589v250.648c0 5.296 4.293 9.589 9.589 9.589h35.636c5.296 0 9.589-4.293 9.589-9.589v-250.648c.001-5.296-4.293-9.589-9.589-9.589z"/><path d="m328.655 90.888h-35.636c-5.296 0-9.589 4.293-9.589 9.589v230.648c0 5.296 4.293 9.589 9.589 9.589h35.636c5.296 0 9.589-4.293 9.589-9.589v-230.648c0-5.296-4.293-9.589-9.589-9.589z"/><path d="m436.877 100.888h-35.636c-5.296 0-9.589 4.293-9.589 9.589v210.648c0 5.296 4.293 9.589 9.589 9.589h35.636c5.296 0 9.589-4.293 9.589-9.589v-210.648c0-5.296-4.293-9.589-9.589-9.589z"/></g><path d="m88.892 351.126v-270.649c0-5.296 4.293-9.589 9.589-9.589h-21.907c-5.296 0-9.589 4.293-9.589 9.589v270.648c0 5.296 4.293 9.589 9.589 9.589h21.907c-5.295.001-9.589-4.293-9.589-9.588z" fill="#fbc700"/><path d="m197.115 341.126v-250.649c0-5.296 4.293-9.589 9.589-9.589h-21.908c-5.296 0-9.589 4.293-9.589 9.589v250.648c0 5.296 4.293 9.589 9.589 9.589h21.908c-5.296.001-9.589-4.293-9.589-9.588z" fill="#fbc700"/><path d="m305.337 331.126v-230.649c0-5.296 4.293-9.589 9.589-9.589h-21.908c-5.296 0-9.589 4.293-9.589 9.589v230.648c0 5.296 4.293 9.589 9.589 9.589h21.908c-5.296.001-9.589-4.293-9.589-9.588z" fill="#fbc700"/><path d="m413.559 321.126v-210.649c0-5.296 4.293-9.589 9.589-9.589h-21.908c-5.296 0-9.589 4.293-9.589 9.589v210.648c0 5.296 4.293 9.589 9.589 9.589h21.908c-5.295.001-9.589-4.293-9.589-9.588z" fill="#fbc700"/><path d="m340.7 386.246-1.506-1.696-46.366 5.512 3.541 29.79 46.366-5.511 1.132-1.775z" fill="#b5dcff"/><path d="m342.258 399.194-1.558-12.948-1.506-1.696-46.366 5.512 1.759 14.799z" fill="#8bcaff"/><path d="m407.097 391.584c-1.572-13.222-10.431-23.888-22.069-28.458-13.853 6.239-22.77 20.972-20.887 36.807 1.533 12.893 9.863 23.385 20.959 28.368 14.445-5.681 23.91-20.625 21.997-36.717z" fill="#dbedff"/><path d="m364.586 399.847c-1.879-15.803 7.22-30.493 21.229-36.396-5.391-2.27-11.411-3.227-17.605-2.491-19.115 2.272-32.896 19.771-30.624 38.887 2.272 19.115 19.771 32.896 38.887 30.624 3.312-.394 6.459-1.254 9.395-2.491-11.248-4.736-19.746-15.212-21.282-28.133z" fill="#b5dcff"/></g><g><path d="m20.868 306.769c-12.626 1.176-21.943 12.405-20.768 25.034 1.186 12.717 12.306 21.948 25.032 20.766l34.496-3.212v2.033c0 9.423 7.666 17.089 17.089 17.089h35.637c9.423 0 17.089-7.666 17.089-17.089v-8.534l38.408-3.577v2.111c0 9.423 7.666 17.089 17.089 17.089h35.636c9.424 0 17.09-7.666 17.09-17.089v-8.613l38.407-3.577v2.189c0 9.423 7.666 17.089 17.09 17.089h35.636c9.424 0 17.09-7.667 17.09-17.089v-8.691l38.407-3.577v2.268c0 9.423 7.666 17.089 17.089 17.089h35.637c9.423 0 17.089-7.667 17.089-17.089v-8.769l37.019-3.447c12.626-1.176 21.942-12.405 20.768-25.032-1.177-12.622-12.418-21.939-25.032-20.767l-32.754 3.05v-35.414c0-4.142-3.357-7.5-7.5-7.5s-7.5 3.358-7.5 7.5v90.38c0 1.152-.938 2.089-2.089 2.089h-35.637c-1.151 0-2.089-.938-2.089-2.089 0-4.954 0-206.597 0-210.648 0-1.152.938-2.089 2.089-2.089h35.637c1.151 0 2.089.938 2.089 2.089v85.269c0 4.142 3.357 7.5 7.5 7.5s7.5-3.358 7.5-7.5v-30.303l32.755 3.05c12.718 1.179 23.846-8.04 25.031-20.768 1.175-12.626-8.142-23.855-20.768-25.032l-37.019-3.447v-8.768c0-9.423-7.666-17.089-17.089-17.089h-35.637c-9.423 0-17.089 7.667-17.089 17.089v2.267l-38.407-3.577v-8.69c0-9.423-7.666-17.089-17.09-17.089h-35.636c-9.424 0-17.09 7.667-17.09 17.089v2.188l-38.407-3.577v-8.614c0-9.423-7.666-17.089-17.09-17.089h-35.636c-9.423 0-17.089 7.666-17.089 17.089v2.11l-38.408-3.577v-8.533c0-9.423-7.666-17.089-17.089-17.089h-35.637c-9.423 0-17.089 7.666-17.089 17.089v2.032l-34.502-3.213c-12.624-1.166-23.851 8.15-25.026 20.768-1.175 12.626 8.142 23.855 20.768 25.032l38.761 3.609v174.19zm38.76 27.522-35.886 3.342c-4.48.414-8.298-2.835-8.707-7.222-.408-4.392 2.832-8.298 7.223-8.707l37.37-3.48zm394.482-52.803 34.142-3.18c4.391-.407 8.301 2.833 8.709 7.223.408 4.392-2.832 8.297-7.223 8.706l-35.628 3.318zm0-146.914 35.628 3.318c4.391.409 7.631 4.315 7.223 8.706-.412 4.429-4.28 7.638-8.706 7.223l-34.145-3.18zm-108.222-10.079 38.407 3.577v16.067l-38.407-3.577zm0 31.132 38.407 3.577v113.72l-38.407 3.577zm0 135.939 38.407-3.577v16.067l-38.407 3.577zm-54.815-190.826c0-1.152.938-2.089 2.09-2.089h35.636c1.152 0 2.09.938 2.09 2.089v230.648c0 1.152-.938 2.089-2.09 2.089h-35.636c-1.152 0-2.09-.938-2.09-2.089 0-3.941 0-226.87 0-230.648zm-53.408 13.677 38.407 3.577v16.067l-38.407-3.577zm0 31.132 38.407 3.577v133.877l-38.407 3.577zm0 156.095 38.407-3.577v16.067l-38.407 3.577zm-54.814-210.904c0-1.152.938-2.089 2.089-2.089h35.636c1.152 0 2.09.938 2.09 2.089v250.648c0 1.152-.938 2.089-2.09 2.089h-35.636c-1.151 0-2.089-.938-2.089-2.089 0-10.036 0-239.984 0-250.648zm-53.408 13.599 38.408 3.577v16.067l-38.408-3.577zm0 31.131 38.408 3.577v154.033l-38.408 3.577zm0 176.252 38.408-3.577v16.067l-38.408 3.577zm-54.815-230.982c0-1.152.938-2.089 2.089-2.089h35.637c1.151 0 2.089.938 2.089 2.089v270.648c0 1.152-.938 2.089-2.089 2.089h-35.637c-1.151 0-2.089-.938-2.089-2.089 0-2.432 0-268.094 0-270.648zm-52.369 29.684c-4.392-.409-7.632-4.315-7.224-8.706.409-4.387 4.314-7.628 8.706-7.223l35.887 3.342v16.067z"/><path d="m94.536 120.66c4.143 0 7.5-3.358 7.5-7.5v-7.974c0-4.142-3.357-7.5-7.5-7.5s-7.5 3.358-7.5 7.5v7.974c0 4.143 3.357 7.5 7.5 7.5z"/><path d="m202.758 130.828c4.143 0 7.5-3.358 7.5-7.5v-7.974c0-4.142-3.357-7.5-7.5-7.5s-7.5 3.358-7.5 7.5v7.974c0 4.142 3.358 7.5 7.5 7.5z"/><path d="m310.981 140.996c4.143 0 7.5-3.358 7.5-7.5v-7.975c0-4.142-3.357-7.5-7.5-7.5s-7.5 3.358-7.5 7.5v7.975c0 4.142 3.357 7.5 7.5 7.5z"/><path d="m426.703 135.689c0-4.142-3.357-7.5-7.5-7.5s-7.5 3.358-7.5 7.5v7.974c0 4.142 3.357 7.5 7.5 7.5s7.5-3.358 7.5-7.5z"/><path d="m94.536 333.628c4.143 0 7.5-3.358 7.5-7.5v-7.975c0-4.142-3.357-7.5-7.5-7.5s-7.5 3.358-7.5 7.5v7.975c0 4.142 3.357 7.5 7.5 7.5z"/><path d="m202.758 323.46c4.143 0 7.5-3.358 7.5-7.5v-7.974c0-4.142-3.357-7.5-7.5-7.5s-7.5 3.358-7.5 7.5v7.974c0 4.142 3.358 7.5 7.5 7.5z"/><path d="m310.981 313.293c4.143 0 7.5-3.358 7.5-7.5v-7.974c0-4.142-3.357-7.5-7.5-7.5s-7.5 3.358-7.5 7.5v7.974c0 4.142 3.357 7.5 7.5 7.5z"/><path d="m419.203 280.151c-4.143 0-7.5 3.358-7.5 7.5v7.975c0 4.142 3.357 7.5 7.5 7.5s7.5-3.358 7.5-7.5v-7.975c0-4.142-3.358-7.5-7.5-7.5z"/><path d="m367.469 353.776c-15.064 1.791-27.298 11.253-33.407 24.112-25.154 2.99-190.188 22.608-215.464 25.612-12.319 1.465-21.15 12.679-19.687 24.999 1.463 12.307 12.66 21.151 24.999 19.687l82.278-9.781c4.112-.489 7.051-4.22 6.562-8.333-.489-4.114-4.23-7.052-8.333-6.563l-82.277 9.781c-4.126.485-7.846-2.456-8.334-6.562-.487-4.107 2.456-7.845 6.563-8.333l166.04-19.737 1.771 14.895-48.978 5.822c-4.112.489-7.051 4.22-6.562 8.333s4.227 7.045 8.333 6.563c14.811-1.761 85.593-10.174 98.383-11.695 9.024 11.202 23.288 17.373 38.144 15.606 23.251-2.764 39.951-23.971 37.187-47.219-2.765-23.272-23.951-39.951-47.218-37.187zm-64.393 58.006-1.771-14.895 28.751-3.418c-.284 4.759.278 9.992 1.771 14.895zm72.655 11.504c-14.957 1.783-28.756-8.986-30.554-24.062-1.78-15.013 9.035-28.767 24.063-30.553 15.015-1.789 28.767 9.047 30.554 24.062 1.784 15.019-9.048 28.768-24.063 30.553z"/></g></g></svg>