<svg id="Capa_1" enable-background="new 0 0 512.055 512.055" height="512" viewBox="0 0 512.055 512.055" width="512" xmlns="http://www.w3.org/2000/svg"><g><g><path d="m345.263 221.871-14.85-14.85h-8.583l-18.333-18.23 1.149-7.537-14.85-14.85c-23.433-23.433-62.098-19.974-81.464 6.918-12.289 17.065-28.644 32.241-49.346 36.5-2.902.597-4.326 3.895-2.77 6.417 10.659 17.276 4.286 39.915-13.761 49.209-5.322 2.741-11.292 5.338-17.869 7.51-9.577 3.164-20.107-.265-26.159-8.334-1.976-2.635-6.099-2.15-7.347.898-3.414 8.337-11.821 21.151-32.023 26.538-29.978 7.994-94.903 52.225-8.341 146.886h4.781l16.667 17.345.557 4.661c94.662 86.562 138.892 21.637 146.886-8.341 5.387-20.202 18.201-28.609 26.539-32.022 3.048-1.248 3.533-5.371.897-7.347-8.069-6.052-11.498-16.582-8.334-26.159 2.172-6.578 4.769-12.547 7.51-17.869 9.294-18.047 31.933-24.42 49.209-13.761 2.521 1.556 5.819.132 6.417-2.771 4.26-20.702 19.435-37.057 36.5-49.346 26.891-19.367 30.351-58.032 6.918-81.465z" fill="#cb6c35"/><g><path d="m81.013 319.16c20.86-5.563 29.541-18.794 33.066-27.403 1.289-3.147 5.546-3.648 7.586-.927 6.249 8.332 17.123 11.873 27.012 8.606 6.792-2.243 12.956-4.924 18.451-7.755 18.635-9.597 25.216-32.974 14.21-50.813-1.607-2.603-.136-6.009 2.861-6.626 21.377-4.398 38.264-20.068 50.954-37.689 15.389-21.37 42.577-28.391 65.32-19.471l-10.678-10.678c-23.433-23.433-62.098-19.974-81.464 6.918-12.289 17.065-28.644 32.241-49.346 36.5-2.902.597-4.326 3.895-2.77 6.417 10.659 17.276 4.286 39.915-13.761 49.209-5.322 2.741-11.292 5.338-17.869 7.51-9.577 3.164-20.107-.265-26.159-8.334-1.976-2.635-6.099-2.15-7.347.898-3.414 8.337-11.821 21.151-32.023 26.538-28.644 7.638-89.181 48.365-18.999 134.553-35.884-67.587 15.112-100.561 40.956-107.453z" fill="#ae5e2e"/></g><path d="m122.163 365.783h-7.147l-70.905 80.57c-2.035 2.282-1.936 5.757.227 7.919l13.056 13.056c2.162 2.162 5.636 2.262 7.919.227l80.571-70.905v-4.693z" fill="#dbedff"/><path d="m122.163 365.783h-7.147l-70.905 80.57c-2.035 2.282-1.936 5.757.227 7.919l6.166 6.166 82.7-82.472z" fill="#b5dcff"/><path d="m394.746 98.466h-2.995l-190 180.582 30.868 30.868 180.582-190v-2.347z" fill="#dbedff"/><path d="m394.746 98.466h-2.995l-190 180.582 15.301 15.301 186.885-186.37z" fill="#b5dcff"/><path d="m170.357 379.602-38.292-38.292c-1.647-1.647-4.318-1.647-5.965 0l-14.796 14.796c-1.647 1.647-1.647 4.318 0 5.965l38.292 38.292c1.647 1.647 4.318 1.647 5.965 0l14.796-14.796c1.647-1.648 1.648-4.318 0-5.965z" fill="#da7e4a"/><path d="m479.368 62.374-30.038-30.227h-2.566l-56.477 56.477c-2.314 2.314-2.313 6.065 0 8.378l24.378 24.378c2.314 2.313 6.065 2.314 8.378 0l56.477-56.477z" fill="#ffeb7e"/><path d="m407.206 105.939 57.908-57.908-15.784-15.884h-2.566l-56.477 56.477c-2.314 2.314-2.313 6.065 0 8.378l15.489 15.489c-.814-2.206-.342-4.78 1.43-6.552z" fill="#ffd500"/><path d="m497.976 27.531-13.84-13.841c-8.564-8.564-22.577-8.564-31.142 0-8.564 8.564-8.564 22.577 0 31.141l13.841 13.841c8.564 8.564 22.577 8.564 31.141 0s8.564-22.577 0-31.141z" fill="#ffd500"/><path d="m471.359 32.245c6.583-6.583 15.876-8.899 24.371-6.96l-11.594-11.595c-8.564-8.564-22.577-8.564-31.142 0-8.564 8.564-8.564 22.578 0 31.141l11.299 11.299c-1.743-8.362.608-17.427 7.066-23.885z" fill="#fbc700"/></g><g><path d="m184.092 358.85c1.465 1.464 3.385 2.196 5.304 2.196s3.839-.732 5.304-2.196c2.929-2.93 2.929-7.678 0-10.607l-30.868-30.868c-2.93-2.928-7.678-2.928-10.607 0-2.929 2.93-2.929 7.678 0 10.607z"/><path d="m230.303 358.163c6.689-6.691 6.985-16.893.503-23.698-4.092-4.296-10.127-4.643-15.433-3.524-5.254 1.108-7.581 7.307-4.391 11.627 1.961 2.657 5.451 3.687 8.545 2.532.28-.104.465-.17.508-.177.485.378.521.646.519.947-.004.516-.333 1.161-.857 1.685l-23.156 23.156c-7.231 7.231-7.564 18.394.656 26.616 5.635 5.634 12.039 7.231 17.854 5.869 4-.937 6.825-4.736 6.064-8.773-.824-4.37-5.169-7.02-9.371-5.861-1.185.328-2.644-.431-4.332-2.251-1.405-1.515-1.396-3.861.064-5.322z"/><path d="m177.608 281.268c-6.467-6.465-16.839-6.355-23.698.503l-22.862 22.862c-1.439 1.439-3.75 1.45-5.246.07-1.836-1.695-2.61-3.159-2.299-4.345.726-2.766.096-5.737-2.094-7.575-4.674-3.921-10.956-1.513-12.358 3.556-1.038 3.758-1.679 11.164 5.694 18.539 8.25 8.248 19.412 7.861 26.616.656l23.156-23.156c.523-.524 1.169-.854 1.681-.857.329.008.57.03.951.519-.924 4.619.826 7.669 3.772 9.073 4.572 2.179 9.974-.684 10.69-5.698.685-4.796-.072-10.217-4.003-14.147z"/><path d="m489.583 8.65c-11.51-11.508-30.237-11.509-41.749.001-5.75 5.75-8.627 13.302-8.631 20.856l-12.795 12.795-8.885-8.885.071-.071c2.929-2.93 2.929-7.678 0-10.607-2.93-2.928-7.678-2.928-10.607 0l-10.749 10.749c-2.929 2.93-2.929 7.678 0 10.607 1.465 1.464 3.385 2.196 5.304 2.196s3.839-.732 5.304-2.196l.071-.071 8.885 8.885-18.056 18.057-8.886-8.886.071-.071c2.929-2.93 2.929-7.678 0-10.607-2.93-2.928-7.678-2.928-10.607 0l-10.749 10.749c-2.929 2.93-2.929 7.678 0 10.607 1.465 1.464 3.385 2.196 5.304 2.196s3.839-.732 5.304-2.196l.071-.071 8.886 8.886-2.01 2.01c-2.535 2.536-3.932 5.907-3.932 9.492 0 1.621.3 3.194.847 4.67l-25.41 24.151c-3.002 2.854-3.123 7.601-.27 10.604 2.854 3.002 7.602 3.122 10.604.27l24.795-23.567 11.109 11.109-77.748 81.802-.003.003-92.494 97.318-19.988-19.988 97.318-92.494s.003-.003.005-.005l31.627-30.059c3.002-2.854 3.123-7.601.27-10.604-2.854-3.002-7.602-3.122-10.604-.27l-26.332 25.027-9.679-9.679c-12.63-12.63-30.072-19.053-47.868-17.61-17.989 1.454-34.387 10.73-44.985 25.449-13.646 18.948-28.709 30.231-44.771 33.536-7.992 1.644-11.929 10.753-7.642 17.701 8.381 13.582 3.364 31.304-10.813 38.604-5.43 2.796-11.077 5.17-16.788 7.056-6.482 2.145-13.639-.155-17.806-5.71-2.538-3.388-6.724-5.154-10.931-4.62-4.179.535-7.765 3.283-9.357 7.174-3.131 7.646-10.359 17.691-27.016 22.133-16.052 4.281-45.614 19.714-54.597 50.406-8.763 29.941 4.073 64.812 38.125 103.715l-2.137 2.429c-4.677 5.244-4.447 13.244.521 18.213l13.057 13.057c4.968 4.967 12.967 5.198 18.178.553l2.465-2.169c35.2 30.791 63.374 40.76 85.09 40.758 13.512-.001 24.529-3.856 33.176-8.944 3.569-2.101 4.761-6.697 2.66-10.268-2.1-3.569-6.698-4.76-10.268-2.66-25.664 15.102-59.896 5.107-99.302-28.879l61.58-54.192c4.59 3.37 11.042 2.989 15.195-1.164l14.794-14.795c4.582-4.58 4.581-11.992.002-16.573l-38.292-38.292c-4.582-4.58-11.993-4.579-16.572 0l-14.794 14.795c-4.136 4.134-4.554 10.581-1.166 15.197l-54.19 61.578c-29.101-33.77-40.751-64.134-33.724-88.144 7.11-24.294 31.044-36.653 44.065-40.125 20.057-5.349 30.042-17.389 34.851-26.33 8.206 7.862 20.129 10.726 31.099 7.103 6.451-2.131 12.827-4.81 18.95-7.963 20.247-10.426 28.815-35.154 18.819-55.959 18.223-5.009 34.929-17.925 49.711-38.452 8.024-11.144 20.425-18.164 34.022-19.264 13.378-1.077 26.538 3.752 36.052 13.267l9.41 9.409-92.018 87.457-.502-.502c-2.93-2.928-7.678-2.928-10.607 0-2.929 2.93-2.929 7.678 0 10.607 3.439 3.439 36.783 36.783 42.214 42.214 2.931 2.929 7.678 2.928 10.607 0 2.929-2.93 2.929-7.678 0-10.607l-.502-.502 87.457-92.018 9.41 9.409c9.514 9.514 14.348 22.654 13.265 36.054-1.099 13.597-8.12 25.997-19.263 34.021-20.527 14.782-33.443 31.487-38.452 49.711-9.172-4.406-19.744-5.384-29.621-2.637-11.34 3.153-20.939 10.974-26.338 21.456-3.156 6.128-5.835 12.505-7.964 18.95-3.621 10.967-.759 22.891 7.104 31.099-8.94 4.809-20.982 14.794-26.33 34.851-1.424 5.34-3.99 11.294-7.227 16.763-2.109 3.565-.929 8.165 2.636 10.274 3.567 2.108 8.165.93 10.274-2.636 3.914-6.616 7.043-13.909 8.811-20.536 4.441-16.656 14.487-23.885 22.133-27.016 8.425-3.449 9.834-14.831 2.556-20.287-5.558-4.169-7.854-11.325-5.712-17.808 1.884-5.705 4.257-11.354 7.056-16.787 3.542-6.878 9.587-11.805 17.02-13.872 7.39-2.053 15.054-.967 21.581 3.058 6.944 4.29 16.059.356 17.702-7.639 3.306-16.063 14.589-31.127 33.537-44.772 14.719-10.6 23.994-26.996 25.448-44.985 1.438-17.791-4.979-35.238-17.609-47.868l-9.679-9.679 73.298-77.12c1.476.547 3.048.847 4.67.847 3.585 0 6.956-1.396 9.492-3.932l8.238-8.238 8.886 8.886-.07.07c-2.93 2.929-2.93 7.678-.001 10.606 1.465 1.465 3.384 2.197 5.304 2.197 1.919 0 3.839-.732 5.303-2.196l10.749-10.748c2.93-2.929 2.93-7.678.001-10.606s-7.678-2.93-10.606-.001l-.071.071-8.886-8.886 18.057-18.057 8.886 8.886-.071.071c-2.929 2.93-2.929 7.678 0 10.607 1.465 1.464 3.385 2.196 5.304 2.196s3.839-.732 5.304-2.196l10.749-10.749c2.929-2.93 2.929-7.678 0-10.607-2.93-2.928-7.678-2.928-10.607 0l-.071.071-8.893-8.891 6.566-6.566c7.554-.004 15.106-2.882 20.857-8.632 11.509-11.51 11.509-30.238 0-41.748zm-360.357 340.547 33.65 33.65-10.154 10.154c-1.24-1.24-28.914-28.914-33.65-33.65zm-13.714 27.808 19.556 19.556c-91.806 80.684-57.657 50.747-73.374 64.579l-10.76-10.76c18.022-20.477-25.822 29.487 64.578-73.375zm303.486-261.78-.35-.35-21.45-21.45-.35-.35 47.245-47.246c.221.333.453.658.688.983.043.059.083.121.126.18.212.288.434.568.657.849.087.11.17.224.259.333.183.223.375.44.565.658.139.16.271.323.414.481.334.369.678.731 1.032 1.086l13.841 13.841h.001c.357.357.722.703 1.094 1.04.063.057.128.109.192.165.312.277.627.552.949.814.037.03.075.057.112.087.351.284.706.561 1.068.827.005.004.01.007.016.011.374.274.752.541 1.138.796zm73.818-61.593c-3.284 3.286-7.762 4.651-12.05 4.124-.045-.007-.087-.021-.131-.027-1.473-.192-2.876-.606-4.186-1.207-.147-.068-.296-.131-.441-.205-.194-.097-.382-.204-.571-.31-.21-.118-.418-.239-.623-.368-.156-.098-.312-.2-.464-.304-.239-.164-.472-.337-.703-.516-.12-.093-.242-.183-.359-.28-.344-.286-.682-.585-1.004-.908l-13.841-13.84c-.323-.323-.622-.661-.908-1.006-.096-.116-.185-.236-.277-.354-.181-.233-.356-.469-.521-.71-.103-.15-.202-.302-.299-.456-.132-.209-.256-.422-.376-.637-.103-.184-.208-.368-.302-.557-.078-.155-.146-.313-.218-.47-.595-1.304-1.005-2.699-1.196-4.163-.005-.039-.018-.076-.023-.115-.532-4.293.832-8.778 4.12-12.067 2.832-2.831 6.55-4.246 10.269-4.246 3.718 0 7.437 1.415 10.267 4.246l13.841 13.841c5.657 5.662 5.657 14.874-.004 20.535z"/></g></g></svg>