<svg id="Capa_1" enable-background="new 0 0 511.967 511.967" height="512" viewBox="0 0 511.967 511.967" width="512" xmlns="http://www.w3.org/2000/svg"><g><g><path d="m435.604 325.277-69.667-60.667-14.999 1.998v-.002c-11.95 26.333-16.987 55.981-18.696 82.235l3.762 2.769v35.333l-4.045 3.819c.165 3.368.363 6.524.578 9.431.818 11.062-7.297 21.034-18.35 21.949-10.743.888-20.192-6.792-21.616-17.362l-47.49-352.782c-2.299-17.077-12.661-30.991-26.594-38.565h-3.55l-16 26.844-.026 4.596c6.944 4.472 12.271 14.09 14.023 31.885 4.817 48.914 16.543 243.486 26.978 352.036 4.111 42.771 40.045 75.409 83.013 75.409 43.742 0 79.831-33.812 83.181-77.425 2.447-31.857 10.133-67.81 29.549-95.988z" fill="#ffe559"/><g fill="#ffd500"><path d="m365.937 264.61-14.999 1.998v-.002c-11.95 26.333-16.987 55.981-18.696 82.235l3.762 2.769v35.333l-4.045 3.819c.165 3.368.363 6.524.578 9.431.818 11.062-7.297 21.034-18.35 21.949-2.277.188-4.488-.029-6.584-.556l-.001.018s28.135 26.995 49.735 0c12.559-15.695 7.116-80.417 36.913-132.34z"/><path d="m361.341 494.804c-47.352-.792-77.505-23.078-90.784-77.111-15.381-62.583-29.953-332.584-43.953-368.221-4.474-11.388-11.674-18.235-20.171-21.772l-7.496 12.576-.026 4.596c6.944 4.472 12.271 14.09 14.023 31.885 4.817 48.914 16.543 243.486 26.978 352.036 4.111 42.771 40.045 75.409 83.013 75.409 13.838.001 26.904-3.391 38.416-9.398z"/><path d="m402.244 208.678c-24.373 13.438-40.608 34.356-51.306 57.929l84.718 64.183c12.379-17.965 29.525-32.771 53.124-41.336z"/></g><path d="m402.244 208.678c-24.373 13.438-40.608 34.356-51.306 57.929l39.426 29.87c10.315-20.48 25.539-39.467 48.74-53.392z" fill="#fbc700"/><circle cx="336.003" cy="369.823" fill="#fbc700" r="21.333"/><path d="m336.003 369.824c0-7.892 4.296-14.766 10.667-18.456-3.14-1.819-6.776-2.877-10.667-2.877-11.782 0-21.333 9.551-21.333 21.333s9.551 21.333 21.333 21.333c3.89 0 7.526-1.058 10.667-2.877-6.37-3.691-10.667-10.565-10.667-18.456z" fill="#eab900"/><path d="m182.454 8.571c-16.99 3.989-32.131 12.749-41.544 19.137-7.146 4.849-15.559 7.493-24.195 7.493h-3.436l-2.842 2.038v21.371l2.806 3.307h4.084c15.664 0 31.117-3.988 44.65-11.876 11.291-6.582 26.087-12.153 36.935-5.167l19.576-31.44c-10.602-5.765-23.269-7.86-36.034-4.863z" fill="#ffd500"/><path d="m198.912 44.873 9.983-16.034c-18.324-9.352-43.779-1.665-60.624 9.605-13.796 9.23-28.206 11.082-37.833 11.025v9.142l2.806 3.307h4.084c15.664 0 31.117-3.988 44.65-11.876 11.29-6.583 26.086-12.155 36.934-5.169z" fill="#fbc700"/><path d="m64.046 26.471h-44.126c-4.415-.004-7.201 4.749-5.04 8.599l11.584 15.398c2.118 3.772 6.105 6.14 10.431 6.144h27.151l1.558-2.252v-26.417z" fill="#60b9fe"/><path d="m45.562 41.541c-4.326-.004-8.314-2.371-10.431-6.144l-6.716-8.927h-8.495c-4.415-.004-7.201 4.749-5.04 8.599l11.584 15.398c2.118 3.772 6.105 6.14 10.431 6.144h27.151l1.558-2.252v-12.818z" fill="#1ca8ff"/><path d="m64.046 61.859c-.004 4.665 3.75 8.487 8.415 8.491h32.328c4.665.004 8.45-3.774 8.455-8.439l.036-26.896c.004-4.665-3.774-8.54-8.439-8.545h-40.795z" fill="#1ca8ff"/><path d="m85.821 61.859v-35.388h-21.775v35.388c-.004 4.665 3.75 8.487 8.415 8.491h21.775c-4.666-.004-8.419-3.826-8.415-8.491z" fill="#0094fd"/></g><path d="m410.982 392.194c4.024.984 8.083-1.483 9.065-5.507 9.648-39.513 29.755-72.808 67.204-88.27l5.325 4.971c3.031 2.828 7.776 2.661 10.601-.365 2.826-3.028 2.663-7.774-.364-10.6-1.629-1.521-102.035-95.244-104.941-97.957-3.03-2.827-7.775-2.662-10.601.365-2.826 3.028-2.663 7.774.364 10.6l2.419 2.258c-43.482 29.106-60.528 83.33-64.77 135.696-10.529 4.299-17.97 14.645-17.97 26.702 0 11.913 7.262 22.16 17.591 26.551.092 1.468.189 2.931.296 4.373.525 7.108-4.628 13.354-11.487 13.921-6.708.554-12.67-4.228-13.566-10.888l-10.268-76.279 11.024-.931.049.581c.349 4.125 3.973 7.19 8.104 6.843 4.128-.349 7.191-3.977 6.843-8.104l-1.36-16.109c-.349-4.128-3.982-7.194-8.104-6.843-4.128.349-7.191 3.977-6.843 8.104l.049.582-11.765.994-3.573-26.54 10.827-.915.049.581c.352 4.16 4.018 7.195 8.105 6.842 4.127-.349 7.19-3.977 6.842-8.104l-1.361-16.109c-.349-4.128-3.983-7.202-8.105-6.842-4.127.349-7.19 3.977-6.842 8.104l.049.582-11.568.977-3.573-26.539 10.631-.898.049.581c.352 4.16 4.018 7.195 8.105 6.842 4.127-.349 7.19-3.977 6.842-8.104l-1.361-16.109c-.35-4.128-3.985-7.201-8.105-6.842-4.127.349-7.19 3.977-6.842 8.104l.049.581-11.372.961-3.573-26.54 10.434-.882.049.581c.349 4.125 3.973 7.19 8.104 6.842 4.128-.349 7.191-3.977 6.843-8.105l-1.36-16.109c-.35-4.128-3.987-7.19-8.104-6.842-4.128.349-7.191 3.978-6.843 8.105l.049.581-11.175.944-3.573-26.54 10.238-.865.049.581c.349 4.125 3.973 7.19 8.104 6.842 4.128-.349 7.191-3.978 6.843-8.105l-1.36-16.109c-.35-4.128-3.989-7.189-8.104-6.842-4.128.349-7.191 3.977-6.843 8.105l.049.581-10.979.928-3.573-26.539 10.041-.848.049.581c.352 4.16 4.018 7.195 8.105 6.842 4.127-.349 7.19-3.977 6.842-8.104l-1.361-16.109c-.35-4.128-3.99-7.197-8.105-6.842-4.127.349-7.19 3.977-6.842 8.104l.049.581-10.781.911-7.337-54.503c-3.965-29.453-29.425-51.967-59.889-51.244-18.635.473-40.655 11.384-55.926 21.748-5.342 3.625-11.431 5.709-17.729 6.115-2.661-5.125-7.989-8.64-14.13-8.646-10.317 0-72.382 0-84.913 0h-.013c-4.762 0-9.043 2.453-11.451 6.563-2.851 4.863-2.122 10.672.424 14.045l11.318 15.046c3.514 5.86 9.854 9.481 16.69 9.487h19.826c1.093 7.745 7.719 13.731 15.739 13.739h32.321.013c6.088 0 11.385-3.432 14.072-8.458 16.664-.258 32.844-4.687 46.887-12.872 25.74-15.017 36.983-6.794 39.717 20.974.741 7.526 1.655 18.639 2.704 32.372l-.193.016c-4.128.349-7.191 3.978-6.843 8.105.331 3.913 3.608 6.869 7.465 6.869.212 0 .426-.009.64-.027l.052-.004c3.686 49.975 8.612 123.497 13.875 193.246l-.21.018c-4.128.349-7.191 3.978-6.843 8.105.331 3.913 3.608 6.869 7.465 6.869.212 0 .426-.009.64-.027l.087-.007c2.705 35.208 5.466 68.707 8.137 96.484 4.477 46.577 43.608 82.191 90.48 82.191 47.691 0 87.01-36.85 90.658-84.352.188-2.443.411-4.937.663-7.411.421-4.121-2.579-7.802-6.699-8.223-4.115-.416-7.803 2.58-8.223 6.7-.266 2.6-.5 5.22-.696 7.787-3.037 39.532-36.29 70.499-75.703 70.499-39.309 0-71.787-29.503-75.548-68.627-2.663-27.703-5.419-61.147-8.121-96.311l35.513-3 10.367 77.017c1.964 14.577 14.99 25.048 29.668 23.835 13.894-1.15 26.394-13.047 25.12-31.227 12.926-1.773 23.42-12.246 24.768-25.715 1.5-15.305-9.147-28.959-24.345-31.359 1.82-20.058 5.824-42.204 13.808-62.861l22.25 16.856c3.303 2.5 8.006 1.853 10.508-1.449 2.501-3.301 1.853-8.006-1.449-10.507l-25.079-19c9.436-18.779 22.601-35.026 40.826-46.381l73.972 69.049c-16.189 7.737-29.914 18.813-41.128 33.145l-20.636-15.635c-3.304-2.501-8.005-1.853-10.508 1.449-2.501 3.302-1.853 8.006 1.449 10.507l21.149 16.023c-8.725 14.256-15.467 31.052-20.179 50.352-.983 4.025 1.483 8.083 5.507 9.066zm-354.292-342.819h-19.644c-2.835-.003-3.692-2.152-4.445-3.152l-9.019-11.989h33.108zm49.197 12.793c0 .522-.426.946-.954.946h-.001-32.32c-.509 0-.922-.442-.922-.985 0-.002 0-.004 0-.006 0-9.899 0-18.008 0-27.888h33.287c.495 0 .946.496.946 1.035zm90.252-26.537c-10.386-3.128-23.068-.392-37.795 8.193-11.227 6.543-24.107 10.245-37.447 10.787l.009-6.523.007-5.286c1.084-.088 2.162-.21 3.235-.368 7.506-1.102 14.7-3.901 21.118-8.256 12.128-8.231 30.283-17.563 44.956-19.005 5.893-.549 11.825.113 17.447 1.94zm27.126 73.235c-1.054-13.792-1.974-24.973-2.723-32.58-1.443-14.656-5.393-25.554-11.755-32.591l12.18-19.562c9.182 7.091 15.27 17.579 16.825 29.129l7.238 53.766zm14.997 208.205c-5.259-69.706-10.188-143.257-13.875-193.246l22.646-1.913 25.877 192.232zm111.718 53.016c0 7.629-6.226 13.833-13.833 13.833-7.6 0-13.833-6.181-13.833-13.833 0-6.683 4.801-12.419 11.386-13.599 8.696-1.547 16.28 5.195 16.28 13.599z"/></g></svg>