<svg id="Capa_1" enable-background="new 0 0 511.996 511.996" height="512" viewBox="0 0 511.996 511.996" width="512" xmlns="http://www.w3.org/2000/svg"><g><g><path d="m41.563 77.949h215.346l4.458-4.604c-24.244-39.848-65.648-66.108-112.658-66.108s-88.414 26.26-112.658 66.108z" fill="#ffe559"/><path d="m164.45 8.247c-5.166-.656-10.415-1.01-15.741-1.01-47.01 0-88.414 26.26-112.658 66.108l5.512 4.604h46.939c15.97-37.229 43.203-64.277 75.948-69.702z" fill="#ffd500"/><path d="m261.351 237.344-5.358-3.93h-216.334l-3.592 3.93c13.44 22.086 32.137 40.009 54.156 51.586 9.621 5.059 17.14 12.765 22.044 21.855l3.559 2.496h60.5l8.825-2.496c4.905-9.09 12.423-16.797 22.044-21.855 22.019-11.577 40.716-29.499 54.156-51.586z" fill="#ffe559"/><path d="m148.761 310.786c-3.749-9.091-9.496-16.797-16.851-21.856-17.403-11.97-32.583-31.146-43.159-55.516h-49.092l-3.592 3.93c13.44 22.086 32.137 40.009 54.156 51.586 9.621 5.059 17.14 12.765 22.044 21.855l3.559 2.496h33.896c-.305-.839-.622-1.673-.961-2.495z" fill="#ffd500"/><path d="m107.911 390.786 4.355 2.913h72.885l4.355-2.913-9.529-42.274c-.229-1.019-.418-2.039-.588-3.06l-3.231-2.504h-54.5l-3.632 2.504c-.17 1.021-.358 2.041-.588 3.06z" fill="#ffe559"/><path d="m145.432 390.786 7.283-42.274c.317-1.843.551-3.701.719-5.563h-31.776l-3.632 2.504c-.17 1.021-.358 2.041-.588 3.06l-9.528 42.274 4.355 2.913h32.664c.165-.956.332-1.923.503-2.914z" fill="#ffd500"/><path d="m201.774 450.286-4.615-3.837h-97l-4.515 3.837c-.539 28.917 22.769 53.947 53.065 53.947 30.296 0 53.604-25.03 53.065-53.947z" fill="#ffe559"/><path d="m136.055 450.286c.021-1.456.038-2.558.129-3.837h-36.025l-4.515 3.837c-.539 28.917 22.769 53.947 53.065 53.947 5.542 0 10.847-.845 15.818-2.391-16.973-6.905-28.808-27.929-28.472-51.556z" fill="#ffd500"/><path d="m179.39 345.452c-2.015-12.121.165-24.295 5.761-34.667h-72.885c5.596 10.372 7.775 22.546 5.761 34.667z" fill="#ff636e"/><path d="m153.164 345.452c1.499-11.843-.03-24.064-4.403-34.667h-36.495c5.596 10.372 7.776 22.546 5.761 34.667z" fill="#ff4654"/><path d="m96.934 439.488c-.819 3.633-1.224 7.243-1.29 10.797h106.13c-.066-3.554-.471-7.164-1.29-10.797l-10.978-48.703h-81.595z" fill="#60b9fe"/><path d="m145.432 390.786h-37.521l-10.978 48.703c-.819 3.633-1.224 7.243-1.29 10.797h40.411c.103-7.188.115-5.742 9.378-59.5z" fill="#1ca8ff"/><g fill="#ff636e"><path d="m24.909 116.949h244l9.257-4.638.007.002c-3.872-13.974-9.572-27.077-16.806-38.968h-225.316c-7.234 11.89-12.934 24.993-16.805 38.966z"/><path d="m278.166 198.379-3.757-3.68h-250.25l-4.907 3.68c3.875 13.973 9.579 27.075 16.815 38.966h225.284c7.236-11.892 12.94-24.994 16.815-38.966z"/></g><g><path d="m90.565 73.344h-54.514c-7.234 11.89-12.934 24.993-16.805 38.966l5.663 4.638h51.818c2.951-15.586 7.657-30.306 13.838-43.604z" fill="#ff4654"/></g><g><path d="m77.661 198.379c-.26-1.226-.501-2.453-.738-3.68h-52.764l-4.907 3.68c3.875 13.973 9.579 27.075 16.815 38.966h54.444c-5.476-11.771-9.855-24.84-12.85-38.966z" fill="#ff4654"/></g><path d="m278.166 112.31-8.257 4.138h-71l-7.05-4.138-10.2 4.138h-69.5l-6.606-4.138-7.894 3.138h-69.5l-8.913-3.138c-3.774 13.619-5.811 28.065-5.811 43.034 0 14.971 2.041 29.416 5.818 43.034h258.914c3.777-13.618 5.817-28.063 5.817-43.034 0-14.969-2.038-29.415-5.811-43.034z" fill="#ffd500"/><g><path d="m77.016 115.449h-48.857l-8.913-3.138c-3.774 13.619-5.811 28.065-5.811 43.034 0 14.971 2.041 29.416 5.818 43.034h58.409c-6.014-28.363-5.783-56.886-.646-82.93z" fill="#fbc700"/></g><path d="m19.246 112.31 43.153 86.068 43.153-86.068c-9.148 0-77.158 0-86.306 0z" fill="#ffe559"/><path d="m77.657 112.31c-23.125 0-52.609 0-58.412 0l43.153 86.068 11.702-23.339c-2.057-21.635-.678-42.941 3.557-62.729z" fill="#ffd500"/><g fill="#ffe559"><path d="m105.552 112.31 43.153 86.068 43.153-86.068c-9.147 0-77.157 0-86.306 0z"/><path d="m191.859 112.31 43.153 86.068 43.153-86.068c-9.148 0-77.158 0-86.306 0z"/><path d="m255.854 77.949h215.346l4.458-4.604c-24.244-39.848-65.648-66.108-112.658-66.108s-88.414 26.26-112.658 66.108z"/></g><path d="m378.741 8.247c-5.166-.656-10.415-1.01-15.741-1.01-47.01 0-88.414 26.26-112.658 66.108l5.512 4.604h46.939c15.97-37.229 43.202-64.277 75.948-69.702z" fill="#ffd500"/><path d="m475.642 237.344-5.358-3.93h-216.334l-3.592 3.93c13.44 22.086 32.137 40.009 54.156 51.586 9.621 5.059 17.14 12.765 22.044 21.855l3.559 2.496h60.5l8.825-2.496c4.905-9.09 12.423-16.797 22.044-21.855 22.019-11.577 40.716-29.499 54.156-51.586z" fill="#ffe559"/><path d="m363.052 310.786c-3.749-9.091-9.496-16.797-16.851-21.856-17.403-11.97-32.583-31.146-43.159-55.516h-49.092l-3.592 3.93c13.44 22.086 32.137 40.009 54.156 51.586 9.621 5.059 17.14 12.765 22.044 21.855l3.559 2.496h33.896c-.305-.839-.622-1.673-.961-2.495z" fill="#ffd500"/><path d="m322.202 390.786 4.355 2.913h72.885l4.355-2.913-9.529-42.274c-.229-1.019-.418-2.039-.588-3.06l-3.231-2.504h-54.5l-3.632 2.504c-.17 1.021-.358 2.041-.588 3.06z" fill="#ffe559"/><path d="m359.723 390.786 7.283-42.274c.317-1.843.551-3.701.719-5.563h-31.775l-3.632 2.504c-.17 1.021-.358 2.041-.588 3.06l-9.528 42.274 4.355 2.913h32.664c.164-.956.331-1.923.502-2.914z" fill="#ffd500"/><path d="m416.065 450.286-4.615-3.837h-97l-4.515 3.837c-.539 28.917 22.769 53.947 53.065 53.947 30.296 0 53.603-25.03 53.065-53.947z" fill="#ffe559"/><path d="m350.346 450.286c.021-1.456.038-2.558.129-3.837h-36.025l-4.515 3.837c-.539 28.917 22.769 53.947 53.065 53.947 5.542 0 10.847-.845 15.818-2.391-16.973-6.905-28.809-27.929-28.472-51.556z" fill="#ffd500"/><path d="m393.681 345.452c-2.015-12.121.165-24.295 5.761-34.667h-72.885c5.596 10.372 7.775 22.546 5.761 34.667z" fill="#ff636e"/><path d="m367.455 345.452c1.499-11.843-.03-24.064-4.403-34.667h-36.495c5.596 10.372 7.776 22.546 5.761 34.667z" fill="#ff4654"/><path d="m311.224 439.488c-.819 3.633-1.224 7.243-1.29 10.797h106.13c-.066-3.554-.471-7.164-1.29-10.797l-10.978-48.703h-81.595z" fill="#60b9fe"/><path d="m359.723 390.786h-37.521l-10.978 48.703c-.819 3.633-1.224 7.243-1.29 10.797h40.411c.103-7.188.115-5.742 9.378-59.5z" fill="#1ca8ff"/><g fill="#ff636e"><path d="m239.2 116.949h244l9.257-4.638.007.002c-3.872-13.974-9.572-27.077-16.806-38.968h-225.316c-7.234 11.89-12.934 24.993-16.805 38.966z"/><path d="m492.457 198.379-3.757-3.68h-250.25l-4.907 3.68c3.875 13.973 9.579 27.075 16.815 38.966h225.284c7.236-11.892 12.939-24.994 16.815-38.966z"/></g><g><path d="m304.856 73.344h-54.514c-7.234 11.89-12.934 24.993-16.805 38.966l5.663 4.638h51.818c2.951-15.586 7.657-30.306 13.838-43.604z" fill="#ff4654"/></g><g><path d="m291.952 198.379c-.26-1.226-.501-2.453-.738-3.68h-52.764l-4.907 3.68c3.875 13.973 9.579 27.075 16.815 38.966h54.444c-5.476-11.771-9.856-24.84-12.85-38.966z" fill="#ff4654"/></g><path d="m492.457 112.31-8.257 4.138h-71l-7.05-4.138-10.2 4.138h-69.5l-6.606-4.138-7.894 3.138h-69.5l-8.913-3.138c-3.774 13.619-5.811 28.065-5.811 43.034 0 14.971 2.041 29.416 5.818 43.034h258.914c3.777-13.618 5.817-28.063 5.817-43.034 0-14.969-2.038-29.415-5.811-43.034z" fill="#ffd500"/><g><path d="m291.307 115.449h-48.857l-8.913-3.138c-3.774 13.619-5.811 28.065-5.811 43.034 0 14.971 2.041 29.416 5.818 43.034h58.409c-6.014-28.363-5.783-56.886-.646-82.93z" fill="#fbc700"/></g><path d="m233.537 112.31 43.153 86.068 43.153-86.068c-9.148 0-77.158 0-86.306 0z" fill="#ffe559"/><path d="m291.948 112.31c-23.125 0-52.609 0-58.412 0l43.153 86.068 11.702-23.339c-2.057-21.635-.678-42.941 3.557-62.729z" fill="#ffd500"/><path d="m319.843 112.31 43.153 86.068 43.153-86.068c-9.147 0-77.158 0-86.306 0z" fill="#ffe559"/><path d="m406.15 112.31 43.153 86.068 43.153-86.068c-9.148 0-77.158 0-86.306 0z" fill="#ffe559"/></g><path d="m86.875 295.832c18.82 9.896 27.9 31.284 23.392 51.294-2.503 11.104-18.118 80.381-20.506 90.976-8.522 37.809 20.19 73.894 59.092 73.894 38.203 0 67.572-35.127 59.092-73.894-2.277-10.101-17.825-79.081-20.507-90.977-4.608-20.457 4.964-41.606 23.392-51.294 17.093-8.987 32.538-21.818 45.155-37.407 12.584 15.58 27.909 28.326 45.182 37.407 18.752 9.86 27.917 31.205 23.392 51.294l-20.506 90.977c-8.494 37.675 20.066 73.894 59.092 73.894 38.768 0 67.637-35.948 59.092-73.894-2.38-10.561-18.131-80.436-20.507-90.977-4.541-20.161 4.71-41.472 23.392-51.294 47.487-24.967 80.798-78.143 80.798-140.224-.002-84.964-63.337-155.607-142.776-155.607-42.612 0-80.917 20.458-107.1 52.827-27.133-33.693-65.681-52.827-107.191-52.827-80.062 0-142.775 71.337-142.775 155.607 0 58.617 30.57 113.816 80.797 140.225zm-57.146-89.69h198.332c2.55 8.096 5.839 16.281 9.701 23.966h-197.127c-4.309-7.58-7.959-15.608-10.906-23.966zm193.277-15h-62.006l31.003-61.836zm-18.853-71.069h19.933c-2.255 10.571-3.495 21.821-3.688 32.4zm-55.303 61.835-31.003-61.835h62.006zm-12.15 9.234h-62.007l31.003-61.836zm-74.157-9.234-31.003-61.835h62.006zm374.754 9.234h-62.007l31.003-61.836zm-18.853-71.069h62.006l-31.003 61.835zm-55.303 61.835-31.003-61.835h62.006zm-12.15 9.234h-62.007l31.003-61.836zm-74.157-9.234-31.003-61.835h62.006zm-12.15 9.234h-25.1c-4.451-18.55-5.3-37.36-2.875-55.797zm-71.049 251.907h-27.285c-4.143 0-7.5 3.358-7.5 7.5s3.357 7.5 7.5 7.5h27.599c-3.202 21.906-22.007 38.947-45.096 38.947-23.097 0-41.896-17.051-45.096-38.947h27.593c4.143 0 7.5-3.358 7.5-7.5s-3.357-7.5-7.5-7.5h-27.28c.373-1.993-.883 3.703 9.982-44.5h69.6c10.675 47.359 9.642 42.684 9.983 44.5zm-22.324-104.834h-44.917c.153-6.738-.8-13.374-2.749-19.667h50.416c-1.95 6.293-2.904 12.929-2.75 19.667zm-47.041 15h49.164l6.837 30.333h-62.838zm79.579-70.66c-9.528 5.01-17.272 12.327-22.82 20.994h-64.354c-5.548-8.667-13.292-15.984-22.82-20.994-17.041-8.96-31.743-21.88-43.396-37.448h195.889s.471.722.472.723c-11.77 15.448-26.54 28.086-42.971 36.725zm159.295 214.441c-23.097 0-41.896-17.051-45.096-38.947h90.191c-3.202 21.906-22.006 38.947-45.095 38.947zm44.782-53.947h-89.564c.407-2.177-.797 3.323 9.982-44.5h69.6c10.681 47.385 9.654 42.752 9.982 44.5zm-22.324-104.834h-44.917c.153-6.738-.8-13.374-2.749-19.667h50.416c-1.95 6.293-2.904 12.929-2.75 19.667zm-47.041 15h49.164l6.837 30.333h-62.838zm132.8-123.108h-93.248c-4.143 0-7.5 3.358-7.5 7.5s3.357 7.5 7.5 7.5h83.422c-11.653 15.568-26.355 28.488-43.396 37.448-9.528 5.01-17.272 12.327-22.82 20.994h-64.354c-5.548-8.667-13.292-15.984-22.82-20.994-17.041-8.96-31.743-21.88-43.396-37.448h78.362c4.143 0 7.5-3.358 7.5-7.5s-3.357-7.5-7.5-7.5h-88.188c-4.309-7.579-7.958-15.608-10.906-23.966h238.247c-2.945 8.359-6.594 16.387-10.903 23.966zm15.342-38.965h-25.106l27.98-55.806c2.389 18.154 1.659 36.917-2.874 55.806zm-123.559-176.142c39.583 0 75.019 19.911 98.474 51.107h-196.949c23.456-31.196 58.892-51.107 98.475-51.107zm108.315 66.107c4.299 7.541 7.966 15.559 10.918 23.966-10.422 0-227.758 0-238.467 0 2.952-8.407 6.619-16.425 10.918-23.966zm-322.606-66.107c38.149 0 73.585 18.288 97.969 50.361-.161.246-.31.5-.47.747h-195.974c23.456-31.197 58.892-51.108 98.475-51.108zm-108.316 66.107h197.215c-3.873 7.702-7.1 15.715-9.697 23.966-6.991 0-191.576 0-198.436 0 2.952-8.407 6.619-16.425 10.918-23.966zm-18.12 54.237 27.976 55.797h-25.1c-4.369-18.207-5.351-36.964-2.876-55.797z"/></g></svg>